#!OML:ASF E:\emotionWalksFemale\Project 1\Capture day 1\Session 1\Female1.ASF
:FULLY-SPECIFIED
:DEGREES
552
root 10.1838 15.6295 -2.93595 -1.87388 -6.53789 3.49275
lowerback 7.09601 2.86895 0.557186
upperback -4.68819 3.8323 -1.00722
thorax -8.83441 1.79666 -1.93639
lowerneck -10.4371 -2.22489 -5.80961
upperneck 12.6987 -2.45764 2.69918
head 5.65736 -1.28227 1.60232
rclavicle 3.22031e-014 2.18663e-015
rhumerus -35.2053 6.65703 -82.8051
rradius 34.5906
rwrist 12.264
rhand -1.11119 -52.3782
rfingers 7.12502
rthumb 24.5256 -80.8276
lclavicle 3.22031e-014 2.18663e-015
lhumerus -47.3447 12.7202 69.3644
lradius 34.1021
lwrist -13.5366
lhand -5.43015 -28.8944
lfingers 7.12502
lthumb 20.3801 0.0561421
rfemur 2.82141 1.02672 18.3609
rtibia 56.3504
rfoot 18.5923 -5.45264
rtoes -5.22475
lfemur -11.4221 -15.3197 -29.4372
ltibia 17.8109
lfoot -7.72631 21.5229
ltoes -2.77568
553
root 10.19 15.643 -2.80002 -1.92864 -6.59888 3.62819
lowerback 7.34358 2.78559 0.29815
upperback -4.65268 3.69757 -0.933159
thorax -8.96727 1.74689 -1.70818
lowerneck -10.3164 -2.08367 -5.64638
upperneck 12.3276 -2.27502 2.55371
head 5.50898 -1.19344 1.5454
rclavicle -5.35228e-014 -7.35503e-015
rhumerus -35.366 6.67848 -82.753
rradius 34.1859
rwrist 12.8631
rhand -1.11828 -52.5076
rfingers 7.12502
rthumb 24.5188 -80.9579
lclavicle -5.35228e-014 -7.35503e-015
lhumerus -46.8231 12.0158 70.2845
lradius 34.6296
lwrist -12.7915
lhand -5.65004 -27.8041
lfingers 7.12502
lthumb 20.1687 1.16891
rfemur 1.00468 0.794132 18.1032
rtibia 58.8584
rfoot 17.0728 -6.59212
rtoes -5.99299
lfemur -10.4598 -15.1656 -29.8435
ltibia 17.1966
lfoot -7.92884 21.4511
ltoes -3.07864
554
root 10.1965 15.656 -2.67209 -1.92697 -6.74878 3.5542
lowerback 7.56874 2.76177 0.316988
upperback -4.63722 3.67377 -0.860549
thorax -9.08734 1.7345 -1.65116
lowerneck -10.0873 -1.9632 -5.31607
upperneck 11.8498 -2.13469 2.27678
head 5.30851 -1.12629 1.41724
rclavicle -2.85753e-014 1.27222e-014
rhumerus -35.4798 6.57272 -82.7136
rradius 33.5982
rwrist 13.4817
rhand -1.50353 -52.6343
rfingers 7.12502
rthumb 24.1495 -81.1342
lclavicle -2.85753e-014 1.27222e-014
lhumerus -46.1078 11.746 70.8545
lradius 34.6319
lwrist -12.3226
lhand -5.76475 -28.6707
lfingers 7.12502
lthumb 20.0585 0.313889
rfemur -0.958816 0.641243 18.1383
rtibia 61.1348
rfoot 15.3912 -7.10151
rtoes -8.70209
lfemur -9.71759 -15.1454 -29.9668
ltibia 16.7667
lfoot -8.18064 21.6006
ltoes -3.16179
555
root 10.2071 15.6588 -2.51291 -2.1733 -6.85901 3.94356
lowerback 7.46665 2.7406 0.0366396
upperback -4.48681 3.60703 -0.931386
thorax -8.87776 1.72 -1.5478
lowerneck -9.99077 -1.89749 -5.21039
upperneck 11.6788 -2.05045 2.1596
head 5.2334 -1.08743 1.37049
rclavicle -6.38596e-014 -8.94531e-015
rhumerus -35.6116 6.36052 -82.5975
rradius 33.0186
rwrist 14.1971
rhand -1.58903 -52.8305
rfingers 7.12502
rthumb 24.0675 -81.3413
lclavicle -6.38596e-014 -8.94531e-015
lhumerus -46.2983 10.3771 71.9594
lradius 36.0768
lwrist -10.6833
lhand -5.86245 -31.0199
lfingers 7.12502
lthumb 19.9646 -2.02545
rfemur -2.41702 0.360649 17.5325
rtibia 63.1235
rfoot 13.2446 -6.99488
rtoes -12.2828
lfemur -8.63811 -15.5316 -30.7674
ltibia 16.5608
lfoot -8.65299 22.5743
ltoes -4.52158
556
root 10.2153 15.6625 -2.3641 -2.27458 -6.83771 4.05145
lowerback 7.42365 2.66195 -0.0330678
upperback -4.38103 3.49659 -0.894828
thorax -8.74621 1.67351 -1.44734
lowerneck -9.12198 -1.63628 -5.43742
upperneck 10.7727 -1.75375 2.53806
head 4.80025 -0.923979 1.55207
rclavicle 5.66536e-015 1.55052e-014
rhumerus -35.8253 6.25256 -82.4566
rradius 32.6272
rwrist 14.6978
rhand -1.81967 -52.7954
rfingers 7.12502
rthumb 23.8463 -81.3352
lclavicle 5.66536e-015 1.55052e-014
lhumerus -45.3877 10.232 72.4884
lradius 35.5071
lwrist -10.4923
lhand -6.24985 -32.8011
lfingers 7.12502
lthumb 19.5922 -3.76836
rfemur -3.98025 0.0599692 17.326
rtibia 64.831
rfoot 10.4379 -7.16873
rtoes -15.6757
lfemur -7.74026 -16.0576 -31.2056
ltibia 16.3052
lfoot -9.16941 23.6721
ltoes -5.86364
557
root 10.2217 15.672 -2.23022 -2.18772 -6.72617 3.73193
lowerback 7.49038 2.56187 0.270524
upperback -4.35863 3.40936 -0.73426
thorax -8.75446 1.61836 -1.43697
lowerneck -9.82986 -1.7758 -4.99519
upperneck 11.3635 -1.88708 1.86826
head 5.09742 -1.01559 1.25788
rclavicle 3.01656e-014 3.97569e-015
rhumerus -36.1279 6.16777 -82.3027
rradius 32.3174
rwrist 15.0803
rhand -2.17813 -52.586
rfingers 7.12502
rthumb 23.5025 -81.1702
lclavicle 3.01656e-014 3.97569e-015
lhumerus -44.794 9.61893 73.3407
lradius 35.7232
lwrist -10.0421
lhand -6.73002 -32.8065
lfingers 7.12502
lthumb 19.1305 -3.72737
rfemur -5.70443 -0.147384 17.6949
rtibia 66.1929
rfoot 9.04187 -7.37134
rtoes -11.6854
lfemur -7.09521 -16.3452 -31.1023
ltibia 15.9835
lfoot -9.50922 23.9121
ltoes -6.32643
558
root 10.2314 15.6818 -2.07199 -2.27748 -6.52036 3.82406
lowerback 7.19744 2.44173 0.255678
upperback -4.2172 3.24851 -0.701419
thorax -8.43524 1.54669 -1.35002
lowerneck -9.81709 -1.66454 -5.14738
upperneck 11.3591 -1.73252 2.00824
head 5.09099 -0.937149 1.33785
rclavicle -5.66536e-015 3.97569e-016
rhumerus -36.3286 5.9219 -82.1053
rradius 31.8281
rwrist 15.6703
rhand -1.93865 -52.6147
rfingers 7.12502
rthumb 23.7322 -81.1694
lclavicle -5.66536e-015 3.97569e-016
lhumerus -44.2159 9.01812 74.1245
lradius 35.9207
lwrist -9.64192
lhand -7.11766 -32.9995
lfingers 7.12502
lthumb 18.7577 -3.8839
rfemur -6.97384 -0.359445 17.4993
rtibia 67.2122
rfoot 6.39109 -7.94821
rtoes -13.4954
lfemur -6.21197 -16.5088 -31.5958
ltibia 15.8144
lfoot -9.7516 23.7511
ltoes -6.53573
559
root 10.238 15.6885 -1.92424 -2.29213 -6.23751 3.78022
lowerback 7.0118 2.26813 0.263394
upperback -4.15833 3.0223 -0.621291
thorax -8.27133 1.4407 -1.22687
lowerneck -9.6608 -1.53565 -5.01744
upperneck 11.2625 -1.57501 1.92425
head 5.02719 -0.859821 1.30291
rclavicle -4.22417e-015 1.07344e-014
rhumerus -36.5487 5.60813 -81.8946
rradius 31.4197
rwrist 16.4893
rhand -2.59505 -50.8798
rfingers 7.12502
rthumb 23.1026 -79.5147
lclavicle -4.22417e-015 1.07344e-014
lhumerus -43.5186 8.6671 74.7228
lradius 35.7412
lwrist -9.54934
lhand -7.71019 -33.3818
lfingers 7.12502
lthumb 18.1877 -4.21216
rfemur -8.33681 -0.538763 17.5522
rtibia 68.0197
rfoot 4.31702 -8.73024
rtoes -13.8796
lfemur -5.45617 -16.849 -31.8786
ltibia 15.6589
lfoot -10.1569 23.8217
ltoes -6.51271
560
root 10.2395 15.6864 -1.79161 -2.15377 -5.73866 3.64346
lowerback 7.08612 2.03249 0.264526
upperback -4.23991 2.71602 -0.499535
thorax -8.41463 1.29331 -1.06223
lowerneck -9.71502 -1.4366 -4.80663
upperneck 11.3516 -1.45145 1.77886
head 5.05682 -0.800481 1.2321
rclavicle -1.54555e-014 2.14687e-014
rhumerus -36.8926 5.39124 -81.7342
rradius 31.1811
rwrist 16.8953
rhand -2.9363 -51.0382
rfingers 7.12502
rthumb 22.7751 -79.7138
lclavicle -1.54555e-014 2.14687e-014
lhumerus -42.9202 8.40229 75.3142
lradius 35.5468
lwrist -9.82395
lhand -8.48382 -33.6594
lfingers 7.12502
lthumb 17.4433 -4.42207
rfemur -9.86631 -0.889551 17.796
rtibia 68.6623
rfoot 2.63665 -9.75863
rtoes -13.4759
lfemur -4.84683 -17.3308 -31.9765
ltibia 15.4015
lfoot -10.6176 23.8818
ltoes -6.38565
561
root 10.2345 15.6886 -1.67451 -1.71039 -4.80606 3.65755
lowerback 7.10269 1.70882 0.0284402
upperback -4.42808 2.26162 -0.436166
thorax -8.64751 1.08532 -0.804148
lowerneck -10.0183 -1.46609 -4.79327
upperneck 11.6747 -1.47473 1.74693
head 5.20873 -0.815257 1.21697
rclavicle 3.62285e-014 -3.97569e-015
rhumerus -37.1481 5.13394 -81.5527
rradius 30.9128
rwrist 16.8722
rhand -2.84809 -52.1756
rfingers 7.12502
rthumb 22.8597 -80.8408
lclavicle 3.62285e-014 -3.97569e-015
lhumerus -42.2593 8.10707 75.9349
lradius 35.5191
lwrist -10.1995
lhand -8.48374 -33.3476
lfingers 7.12502
lthumb 17.4433 -4.11023
rfemur -11.6608 -1.63327 17.9195
rtibia 69.1502
rfoot 1.04036 -10.6883
rtoes -13.195
lfemur -4.76005 -17.5057 -32.0924
ltibia 15.3656
lfoot -10.5783 23.3046
ltoes -8.42099
562
root 10.2358 15.6861 -1.52435 -1.79818 -4.35041 3.80117
lowerback 6.88504 1.57844 -0.184189
upperback -4.31661 2.06475 -0.430052
thorax -8.40888 1.00377 -0.64058
lowerneck -9.51912 -1.44888 -4.78434
upperneck 11.2117 -1.49328 1.87477
head 4.98225 -0.813303 1.25622
rclavicle -1.99282e-014 9.14409e-015
rhumerus -37.5048 4.5571 -81.2208
rradius 30.8974
rwrist 17.1764
rhand -2.39967 -52.8137
rfingers 7.12502
rthumb 23.29 -81.425
lclavicle -1.99282e-014 9.14409e-015
lhumerus -41.4703 7.75057 76.5441
lradius 35.4793
lwrist -10.5906
lhand -7.99128 -33.2651
lfingers 7.12502
lthumb 17.9172 -4.07048
rfemur -12.7692 -1.99631 17.7719
rtibia 69.4084
rfoot -0.795137 -11.2023
rtoes -12.3778
lfemur -4.02756 -17.8123 -32.6116
ltibia 15.4766
lfoot -10.9708 23.3856
ltoes -9.55362
